<svg xmlns="http://www.w3.org/2000/svg" width="301.238" height="288.121" viewBox="0 0 301.238 288.121"><defs> <style>.a{fill:none;}.b,.c{stroke:none;}.c{fill:#242424;}</style> </defs><g class="a" transform="translate(0 -17.133)"><path class="b" d="M90.2,35.653c64.975-26.009,144.9-25.293,182.4,6.4S300,112.124,300,152.394c0,84.422-67.157,152.86-150,152.86S0,236.816,0,152.394,25.225,61.663,90.2,35.653Z"/><path class="c" d="M 185.5853271484375 22.13253784179688 C 170.2561340332031 22.13253784179688 154.4447784423828 23.67868041992188 138.5904083251953 26.72799682617188 C 122.4467315673828 29.83294677734375 106.7910003662109 34.39761352539063 92.05813598632813 40.29522705078125 C 89.30723571777344 41.39639282226563 86.62049865722656 42.46511840820313 84.02227783203125 43.49862670898438 C 69.5115966796875 49.27053833007813 56.979736328125 54.25534057617188 46.73001098632813 59.56903076171875 C 41.44204711914063 62.31039428710938 37.011962890625 65.00630187988281 33.18655395507813 67.81071472167969 C 29.11273193359375 70.79725646972656 25.69677734375 73.92230224609375 22.743408203125 77.36453247070313 C 19.6575927734375 80.96112060546875 17.100830078125 84.872802734375 14.92706298828125 89.32307434082031 C 12.65859985351563 93.96702575683594 10.8486328125 99.10685729980469 9.393768310546875 105.0361175537109 C 7.897918701171875 111.1324920654297 6.816558837890625 117.9006652832031 6.0880126953125 125.7273559570313 C 5.355926513671875 133.5923461914063 5 142.31494140625 5 152.3935394287109 C 5 162.4350738525391 5.992401123046875 172.4687194824219 7.9495849609375 182.2157592773438 C 9.856414794921875 191.711669921875 12.70144653320313 201.0518035888672 16.40576171875 209.9767608642578 C 20.04263305664063 218.7392120361328 24.54409790039063 227.1905822753906 29.7850341796875 235.0961303710938 C 34.97586059570313 242.9260864257813 40.93695068359375 250.2888031005859 47.50271606445313 256.9797058105469 C 54.06692504882813 263.6690368652344 61.2891845703125 269.7416687011719 68.96891784667969 275.0289001464844 C 76.71922302246094 280.36474609375 85.00372314453125 284.947265625 93.59236145019531 288.6492004394531 C 102.3369598388672 292.4183959960938 111.4877319335938 295.3131103515625 120.7904510498047 297.2530212402344 C 130.3374176025391 299.2438354492188 140.1649627685547 300.2532958984375 150 300.2532958984375 C 159.8350524902344 300.2532958984375 169.66259765625 299.2438354492188 179.2095489501953 297.2530212402344 C 188.5122680664063 295.3131103515625 197.6630554199219 292.4183959960938 206.4076385498047 288.6492004394531 C 214.9962768554688 284.947265625 223.2807769775391 280.36474609375 231.0310974121094 275.0289001464844 C 238.7108154296875 269.7416687011719 245.9330902099609 263.6690368652344 252.4972839355469 256.9797058105469 C 259.0630493164063 250.2888031005859 265.0241394042969 242.9260864257813 270.2149658203125 235.0961303710938 C 275.4559020996094 227.1905822753906 279.9573669433594 218.7392120361328 283.59423828125 209.9767608642578 C 287.2985534667969 201.0518035888672 290.1435852050781 191.711669921875 292.0504150390625 182.2157592773438 C 294.0075988769531 172.4687194824219 295 162.4350738525391 295 152.3935394287109 C 295 145.1469421386719 295.3229675292969 137.9401245117188 295.6352233886719 130.9705810546875 C 296.3572692871094 114.8573913574219 297.0392456054688 99.63780212402344 293.8510437011719 85.3172607421875 C 292.1801452636719 77.81202697753906 289.5806274414063 71.15766906738281 285.9039001464844 64.97389221191406 C 283.916015625 61.63040161132813 281.5689086914063 58.37380981445313 278.9279174804688 55.29458618164063 C 276.1419067382813 52.04635620117188 272.9270629882813 48.876220703125 269.37255859375 45.87213134765625 C 264.7999572753906 42.00765991210938 259.4088745117188 38.5330810546875 253.3489074707031 35.54489135742188 C 247.3929595947266 32.6080322265625 240.7162322998047 30.10330200195313 233.5041809082031 28.10040283203125 C 226.4029541015625 26.12826538085938 218.7086791992188 24.62158203125 210.6351013183594 23.62222290039063 C 202.6493682861328 22.63372802734375 194.2214050292969 22.13253784179688 185.5853271484375 22.13253784179688 M 185.5853118896484 17.13253784179688 C 220.82763671875 17.13253784179688 252.6895751953125 25.22610473632813 272.6000061035156 42.05331420898438 C 310.1000061035156 73.74626159667969 300 112.1239471435547 300 152.3935394287109 C 300 236.815673828125 232.8427276611328 305.2532958984375 150 305.2532958984375 C 67.15727233886719 305.2532958984375 0 236.815673828125 0 152.3935394287109 C 0 67.971435546875 25.2254638671875 61.66267395019531 90.19999694824219 35.6533203125 C 120.6766510009766 23.4534912109375 154.4510192871094 17.13253784179688 185.5853118896484 17.13253784179688 Z"/></g></svg>