<svg viewBox="0 0 1 1">
<defs>
<clipPath clipPathUnits="objectBoundingBox" id="bg"><rect width="300" height="300"/></clipPath></defs>
<g id="a" clip-path="url(#b)"><g fill="#fff">
<path d="M 299.4996948242188 299.4996948242188 L 0.5000012516975403 299.4996948242188 L 0.5000012516975403 0.5000048279762268 L 299.4996948242188 0.5000048279762268 L 299.4996948242188 299.4996948242188 Z M 162.3563842773438 13.96531295776367 C 139.5820465087891 13.96600437164307 116.2052307128906 16.24738883972168 96.53215789794922 20.38919639587402 C 74.60792541503906 25.00504302978516 57.37365341186523 31.84373474121094 46.69250106811523 40.16588973999023 C 32.06196212768555 51.56554412841797 22.70511627197266 71.29146575927734 18.08730888366699 100.4708099365234 C 14.08469390869141 125.7621994018555 14.19427013397217 154.5390472412109 14.2909631729126 179.9283447265625 L 14.29103946685791 179.9520416259766 C 14.30611705780029 183.8974609375 14.32030868530273 187.6241149902344 14.32030868530273 191.3598175048828 C 14.32030868530273 221.7899322509766 40.87188720703125 241.5501556396484 63.1458854675293 252.7685394287109 C 89.17230987548828 265.8768615722656 123.2575378417969 274.0198974609375 152.1000061035156 274.0198974609375 C 158.5175018310547 274.0198974609375 164.0644683837891 274.1543884277344 168.9584197998047 274.2730712890625 C 172.8747711181641 274.3681335449219 176.2539672851563 274.4501342773438 179.3880004882813 274.4501342773438 C 192.3697662353516 274.44970703125 200.2168121337891 272.9898376464844 209.7002716064453 264.6948852539063 C 219.1785736083984 256.4044799804688 230.2188415527344 241.5337677001953 250.2611236572266 214.5378570556641 C 265.9597778320313 193.6060028076172 281.5710144042969 148.08642578125 280.51953125 108.1470413208008 C 279.5298156738281 70.52027130126953 274.6214904785156 35.56946563720703 226.080078125 21.36046600341797 C 209.7888793945313 16.59161949157715 187.1620025634766 13.96531295776367 162.3675079345703 13.96531295776367 L 162.3563842773438 13.96531295776367 Z" stroke="none"/><path d="M 298.9996948242188 298.9996948242188 L 298.9996948242188 1.000004768371582 L 1.000001311302185 1.000004768371582 L 1.000001311302185 298.9996948242188 L 298.9996948242188 298.9996948242188 M 162.3563537597656 13.46531295776367 L 162.3563842773438 13.46531295776367 L 162.3675079345703 13.46531295776367 C 187.2082366943359 13.46531295776367 209.8849945068359 16.09877395629883 226.2205352783203 20.88058090209961 C 275.0849914550781 35.18415832519531 280.0245666503906 70.31511688232422 281.0193786621094 108.1338882446289 C 282.0736999511719 148.1821594238281 266.4110717773438 193.8375854492188 250.6625823974609 214.8359222412109 C 230.5997009277344 241.8595886230469 219.5480804443359 256.7455444335938 210.0294647216797 265.0712280273438 C 200.4258117675781 273.4713439941406 192.4970397949219 274.94970703125 179.3880004882813 274.9501342773438 C 176.2478790283203 274.9501342773438 172.8658905029297 274.8680419921875 168.9463043212891 274.7729187011719 C 164.0551605224609 274.6543273925781 158.5114593505859 274.5198974609375 152.1000061035156 274.5198974609375 C 123.1842727661133 274.5198974609375 89.01284790039063 266.3563537597656 62.92100143432617 253.215087890625 C 40.52149963378906 241.9335479736328 13.82030868530273 222.0445098876953 13.82030868530273 191.3598175048828 C 13.82030868530273 187.6250762939453 13.80611705780029 183.8988952636719 13.79107856750488 179.9539337158203 L 13.7909631729126 179.9302368164063 C 13.69419384002686 154.5220794677734 13.58453941345215 125.7238540649414 17.59346199035645 100.3926620483398 C 22.23204040527344 71.08212280273438 31.6498851776123 51.25277328491211 46.38519287109375 39.77146530151367 C 57.12599945068359 31.40281295776367 74.43092346191406 24.53135108947754 96.42915344238281 19.89992713928223 C 116.1350784301758 15.75119686126709 139.5484619140625 13.46600437164307 162.3563537597656 13.46531295776367 M 299.9996948242188 300.0007019042969 L 299.9996948242188 299.9996948242188 L 1.258263182535302e-06 299.9996948242188 L 1.258263182535302e-06 4.798302143171895e-06 L 299.9996948242188 4.798302143171895e-06 L 299.9996948242188 299.9996948242188 L 299.9996948242188 300.0007019042969 Z M 162.3563842773438 14.46531295776367 C 139.6155853271484 14.46600437164307 116.2753448486328 16.74358177185059 96.63515472412109 20.87846565246582 C 74.78496551513672 25.47873497009277 57.62134552001953 32.28458023071289 46.99980926513672 40.5603141784668 C 32.47407913208008 51.87831115722656 23.17823219299316 71.50077056884766 18.58115577697754 100.5489654541016 C 14.58484745025635 125.8005447387695 14.6943473815918 154.5559997558594 14.7909631729126 179.9264221191406 C 14.80603981018066 183.8807373046875 14.82030868530273 187.6156921386719 14.82030868530273 191.3598175048828 C 14.82030868530273 221.5353546142578 41.22227096557617 241.1668090820313 63.37080764770508 252.3219604492188 C 89.33177185058594 265.3973083496094 123.330810546875 273.5198974609375 152.1000061035156 273.5198974609375 C 158.5251617431641 273.5198974609375 164.0763854980469 273.654541015625 168.9741516113281 273.7733154296875 C 172.8857269287109 273.8682250976563 176.2612762451172 273.9501342773438 179.3880004882813 273.9501342773438 C 192.2425079345703 273.94970703125 200.0078430175781 272.5083618164063 209.3710784912109 264.3185424804688 C 218.8090057373047 256.0634155273438 229.8379669189453 241.2080078125 249.8596496582031 214.2398071289063 C 265.5085144042969 193.3743438720703 281.0682983398438 147.9907379150391 280.0197448730469 108.1601943969727 C 279.0350341796875 70.72542572021484 274.1580505371094 35.95477294921875 225.9396209716797 21.84031295776367 C 209.6927642822266 17.0844669342041 187.1157684326172 14.46531295776367 162.3675079345703 14.46531295776367 L 162.3563842773438 14.46531295776367 Z" stroke="none" fill="#707070"/>
</g></g>
</svg>