<svg xmlns="http://www.w3.org/2000/svg" xmlns:xlink="http://www.w3.org/1999/xlink" width="300" height="300" viewBox="0 0 300 300"><defs><style>.a{clip-path:url(#b);}.b{fill:#fff;}.c,.d{stroke:none;}.d{fill:#707070;}</style><clipPath id="b"><rect width="300" height="300"/></clipPath></defs><g id="a" class="a"><g class="b" transform="matrix(0.588, 0.809, -0.809, 0.588, 178.372, -24.234)"><path class="c" d="M 186.0003204345703 249.5002593994141 L 62.00009918212891 249.5002593994141 C 53.69747543334961 249.5002593994141 45.6434440612793 247.874267578125 38.06178665161133 244.6674194335938 C 30.73838043212891 241.56982421875 24.16122436523438 237.1353607177734 18.51306915283203 231.4871673583984 C 12.86478710174561 225.8388824462891 8.430349349975586 219.2617340087891 5.332849502563477 211.9384155273438 C 2.126005887985229 204.3567657470703 0.500005841255188 196.3027648925781 0.500005841255188 188.0001373291016 L 0.500005841255188 62.00013732910156 C 0.500005841255188 53.69751358032227 2.126005887985229 45.64348220825195 5.332849502563477 38.06182479858398 C 8.430412292480469 30.73844909667969 12.86485004425049 24.16129302978516 18.51306915283203 18.51310539245605 C 24.16125679016113 12.86488723754883 30.73841285705566 8.430449485778809 38.06178665161133 5.332887172698975 C 45.6434440612793 2.126043558120728 53.69747543334961 0.5000435709953308 62.00009918212891 0.5000435709953308 L 186.0003204345703 0.5000435709953308 C 194.3029479980469 0.5000435709953308 202.3569183349609 2.126043558120728 209.9384765625 5.332887172698975 C 217.2616271972656 8.430356025695801 223.8386688232422 12.86482524871826 229.4868774414063 18.51310539245605 C 235.135009765625 24.16138648986816 239.5693817138672 30.73851203918457 242.6668243408203 38.06182479858398 C 245.8735656738281 45.6435432434082 247.49951171875 53.69754409790039 247.49951171875 62.00013732910156 L 247.49951171875 188.0001373291016 C 247.49951171875 196.3027038574219 245.8735656738281 204.3567047119141 242.6668243408203 211.9384155273438 C 239.5693817138672 219.2617340087891 235.135009765625 225.8388824462891 229.4868774414063 231.4871673583984 C 223.8387603759766 237.1353912353516 217.26171875 241.5698547363281 209.9384765625 244.6674194335938 C 202.3569183349609 247.874267578125 194.3029479980469 249.5002593994141 186.0003204345703 249.5002593994141 Z M 88.43400573730469 45.66554260253906 C 64.999755859375 45.66554260253906 45.93460083007813 64.73107147216797 45.93460083007813 88.16582489013672 L 45.93460083007813 161.0919494628906 C 45.93460083007813 184.5266723632813 64.999755859375 203.5921936035156 88.43400573730469 203.5921936035156 L 160.1054992675781 203.5921936035156 C 183.5397491455078 203.5921936035156 202.6049194335938 184.5266723632813 202.6049194335938 161.0919494628906 L 202.6049194335938 88.16582489013672 C 202.6049194335938 64.73107147216797 183.5397491455078 45.66554260253906 160.1054992675781 45.66554260253906 L 88.43400573730469 45.66554260253906 Z"/><path class="d" d="M 186.0003204345703 249.0002593994141 C 194.2356567382813 249.0002593994141 202.2241058349609 247.3875427246094 209.7436981201172 244.2069244384766 C 217.0073547363281 241.1345672607422 223.5309753417969 236.7360687255859 229.1333160400391 231.1336364746094 C 234.7356872558594 225.5311126708984 239.1340942382813 219.0073547363281 242.2063140869141 211.7436676025391 C 245.3868560791016 204.2238922119141 246.99951171875 196.2354125976563 246.99951171875 188.0001373291016 L 246.99951171875 62.00013732910156 C 246.99951171875 53.76482391357422 245.3868560791016 45.7763557434082 242.2063140869141 38.25657653808594 C 239.1340942382813 30.99288749694824 234.7356872558594 24.46916770935059 229.1333160400391 18.86663818359375 C 223.5308837890625 13.26413726806641 217.0072631835938 8.86563777923584 209.7436981201172 5.793387413024902 C 202.2241058349609 2.612762212753296 194.2356567382813 1.000043630599976 186.0003204345703 1.000043630599976 L 62.00009918212891 1.000043630599976 C 53.76475524902344 1.000043630599976 45.7762565612793 2.612762212753296 38.25656890869141 5.793387413024902 C 30.9927864074707 8.865731239318848 24.46903800964355 13.26420021057129 18.86660003662109 18.86663818359375 C 13.26416206359863 24.46907424926758 8.865693092346191 30.99282455444336 5.793349742889404 38.25660705566406 C 2.612724542617798 45.77629470825195 1.000005841255188 53.76479339599609 1.000005841255188 62.00013732910156 L 1.000005841255188 188.0001373291016 C 1.000005841255188 196.2354736328125 2.612724542617798 204.2239532470703 5.793349742889404 211.7436370849609 C 8.865631103515625 219.0073547363281 13.26410007476807 225.5311126708984 18.86660003662109 231.1336364746094 C 24.46903800964355 236.7360382080078 30.99275588989258 241.1345367431641 38.25656890869141 244.2069244384766 C 45.7762565612793 247.3875427246094 53.76475524902344 249.0002593994141 62.00009918212891 249.0002593994141 L 186.0003204345703 249.0002593994141 M 88.43400573730469 45.16554260253906 L 160.1054992675781 45.16554260253906 C 183.8154449462891 45.16554260253906 203.1049194335938 64.45539093017578 203.1049194335938 88.16582489013672 L 203.1049194335938 161.0919494628906 C 203.1049194335938 184.8023529052734 183.8154449462891 204.0921936035156 160.1054992675781 204.0921936035156 L 88.43400573730469 204.0921936035156 C 64.72406768798828 204.0921936035156 45.43460083007813 184.8023529052734 45.43460083007813 161.0919494628906 L 45.43460083007813 88.16582489013672 C 45.43460083007813 64.45539093017578 64.72406768798828 45.16554260253906 88.43400573730469 45.16554260253906 M 186.0003204345703 250.0002593994141 L 62.00009918212891 250.0002593994141 C 53.63019180297852 250.0002593994141 45.51066207885742 248.3609771728516 37.86700439453125 245.1279144287109 C 30.48397445678711 242.0051116943359 23.85341262817383 237.5346374511719 18.15950584411621 231.8407287597656 C 12.46553707122803 226.146728515625 7.995068550109863 219.5161743164063 4.872349739074707 212.1331939697266 C 1.639287114143372 204.4895477294922 5.859375050931703e-06 196.3700103759766 5.859375050931703e-06 188.0001373291016 L 5.859375050931703e-06 62.00013732910156 C 5.859375050931703e-06 53.63022994995117 1.639287114143372 45.51070022583008 4.872349739074707 37.86704254150391 C 7.995099544525146 30.48407554626465 12.46553707122803 23.85351181030273 18.15950584411621 18.15954399108887 C 23.85347366333008 12.46557521820068 30.48403739929199 7.995137214660645 37.86700439453125 4.872387409210205 C 45.51066207885742 1.63932478427887 53.63019180297852 4.357910074759275e-05 62.00009918212891 4.357910074759275e-05 L 186.0003204345703 4.357910074759275e-05 C 194.3701934814453 4.357910074759275e-05 202.4897003173828 1.63932478427887 210.1332550048828 4.872387409210205 C 217.5160369873047 7.99507474899292 224.1464691162109 12.4655122756958 229.8404388427734 18.15954399108887 C 235.5342864990234 23.85354423522949 240.0046691894531 30.48410606384277 243.1273193359375 37.86704254150391 C 246.3602600097656 45.51070022583008 247.99951171875 53.6302604675293 247.99951171875 62.00013732910156 L 247.99951171875 188.0001373291016 C 247.99951171875 196.3699798583984 246.3602600097656 204.4895477294922 243.1273193359375 212.1331939697266 C 240.0046691894531 219.5161743164063 235.5342864990234 226.146728515625 229.8404388427734 231.8407287597656 C 224.1466064453125 237.53466796875 217.5161590576172 242.0051422119141 210.1332550048828 245.1279144287109 C 202.4897003173828 248.3609771728516 194.3701934814453 250.0002593994141 186.0003204345703 250.0002593994141 Z M 88.43400573730469 46.16554260253906 C 65.27544403076172 46.16554260253906 46.43460083007813 65.00675964355469 46.43460083007813 88.16582489013672 L 46.43460083007813 161.0919494628906 C 46.43460083007813 184.2509460449219 65.27544403076172 203.0921936035156 88.43400573730469 203.0921936035156 L 160.1054992675781 203.0921936035156 C 183.2640686035156 203.0921936035156 202.1049194335938 184.2509460449219 202.1049194335938 161.0919494628906 L 202.1049194335938 88.16582489013672 C 202.1049194335938 65.00675964355469 183.2640686035156 46.16554260253906 160.1054992675781 46.16554260253906 L 88.43400573730469 46.16554260253906 Z"/></g></g></svg>